<svg width="51" height="51" viewBox="0 0 51 51" fill="none" xmlns="http://www.w3.org/2000/svg">
<circle cx="25.5" cy="25.5" r="25.5" fill="#1D76CC"/>
<path d="M18.7564 37.8936L18.7539 37.8935C17.9047 37.8699 17.0968 37.6518 16.329 37.2384C15.561 36.8249 14.8314 36.2148 14.1409 35.4054C13.1885 34.2624 12.4431 32.8977 11.9059 31.3098C11.3686 29.7218 11.1 28.0923 11.1 26.4208C11.1 24.4389 11.476 22.5778 12.2275 20.8363C12.9797 19.0929 14.0002 17.5774 15.2888 16.2888C16.5774 15.0002 18.0929 13.9797 19.8363 13.2275C21.5778 12.476 23.4389 12.1 25.4208 12.1C27.4024 12.1 29.2634 12.4819 31.0047 13.2452C32.748 14.0094 34.2635 15.0477 35.5521 16.3602C36.8409 17.6728 37.8615 19.2125 38.6139 20.98C39.3654 22.7455 39.7415 24.6429 39.7415 26.6731C39.7415 28.5128 39.4429 30.2314 38.8466 31.8297C38.2502 33.4279 37.4043 34.7733 36.3099 35.8678C35.6438 36.5338 34.9442 37.0372 34.2111 37.3801C33.4784 37.7228 32.7357 37.8934 31.9822 37.8934C31.558 37.8934 31.1335 37.8404 30.7086 37.7342C30.2836 37.628 29.8578 37.4684 29.4312 37.2551L27.4123 36.2456C27.1163 36.0976 26.8021 35.9868 26.4699 35.913C26.1378 35.8392 25.788 35.8024 25.4208 35.8024C25.0536 35.8024 24.7038 35.8392 24.3716 35.913C24.0394 35.9868 23.7252 36.0976 23.4292 36.2456L21.4103 37.2551L21.4103 37.255L21.4085 37.256C20.9582 37.493 20.5152 37.6641 20.0795 37.7701C19.6443 37.876 19.2034 37.9171 18.7564 37.8936ZM22.2208 33.8648L22.2208 33.8648L22.2225 33.864C22.7196 33.6035 23.2341 33.4144 23.7661 33.2962C24.2997 33.1776 24.8392 33.1183 25.3847 33.1183C25.9302 33.1183 26.4759 33.1776 27.0219 33.2963C27.5658 33.4145 28.0861 33.6037 28.583 33.864L28.583 33.864L28.5853 33.8651L30.638 34.8735C30.861 34.9971 31.0856 35.0846 31.3116 35.1348C31.5349 35.1844 31.7584 35.2093 31.9822 35.2093C32.4574 35.2093 32.9075 35.084 33.3308 34.835C33.7516 34.5874 34.1685 34.2185 34.5821 33.732L34.5824 33.7316C35.3604 32.8077 35.967 31.7028 36.4031 30.4186C36.8393 29.1344 37.0574 27.8137 37.0574 26.4568C37.0574 23.2102 35.9297 20.4508 33.6755 18.1845C31.4211 15.918 28.6675 14.7842 25.4208 14.7842C22.1738 14.7842 19.4202 15.9242 17.1659 18.2027C14.9119 20.481 13.7842 23.2463 13.7842 26.4929C13.7842 27.8739 14.0083 29.2188 14.4565 30.5271C14.9047 31.8352 15.5295 32.9406 16.3324 33.841C16.7455 34.3269 17.1513 34.679 17.5506 34.8912C17.9495 35.1031 18.3742 35.2093 18.8233 35.2093C19.047 35.2093 19.2763 35.1844 19.5108 35.135C19.7489 35.0849 19.9799 34.9975 20.2039 34.8733L22.2208 33.8648ZM28.0085 25.2073L27.9758 25.2511L27.995 25.3022C28.0652 25.4894 28.1176 25.6761 28.1526 25.8624C28.1875 26.0487 28.2049 26.2348 28.2049 26.4208C28.2049 27.1872 27.9332 27.8408 27.387 28.387C26.8408 28.9332 26.1872 29.2049 25.4208 29.2049C24.6544 29.2049 24.0008 28.9332 23.4545 28.387C22.9083 27.8408 22.6366 27.1872 22.6366 26.4208C22.6366 25.6544 22.9083 25.0008 23.4545 24.4546C24.0008 23.9083 24.6544 23.6366 25.4208 23.6366C25.4613 23.6366 25.5154 23.6418 25.5846 23.6533C25.6596 23.6658 25.7257 23.6727 25.7813 23.6727H25.8317L25.8617 23.6321L27.7004 21.1445L27.7754 21.0429L27.6593 20.9932C27.3165 20.8462 26.9613 20.736 26.594 20.6626C26.2264 20.589 25.8352 20.5525 25.4208 20.5525C24.1008 20.5525 22.9137 20.9564 21.8629 21.7628C20.8311 22.5546 20.1405 23.5945 19.7919 24.8787H17.0306C17.3802 22.8633 18.3351 21.199 19.8972 19.8817C21.4894 18.539 23.3292 17.8683 25.4208 17.8683C27.5126 17.8683 29.3463 18.5332 30.9264 19.8637C32.4766 21.1691 33.4374 22.8394 33.8098 24.8787H31.0472C30.9291 24.4918 30.7837 24.1312 30.6109 23.7971C30.4279 23.4433 30.2144 23.1078 29.9705 22.7907L29.89 22.6861L29.8111 22.7918L28.0085 25.2073Z" fill="white" stroke="#1D76CC" stroke-width="0.2"/>
</svg>
