<svg width="70" height="38" viewBox="0 0 70 38" fill="none" xmlns="http://www.w3.org/2000/svg">
<path d="M0 0H1.31708V11.6784C2.63216 9.12988 5.14079 7.73111 8.51219 7.73111C13.4477 7.73111 15.8328 10.2397 15.8328 15.3805V29.5277H14.5177V15.791C14.5177 11.0627 12.8719 8.92266 8.55403 8.92266C6.16297 8.92266 4.31786 9.62204 3.04263 11.0627C1.39877 12.9117 1.31708 15.1334 1.31708 18.0944V29.5277H0V0Z" fill="white"/>
<path d="M20.0491 8.18345H21.3642V13.0772C22.7231 9.58222 25.4768 7.73114 29.426 7.73114C35.1825 7.73114 38.8428 11.8836 38.8428 18.9173C38.8428 25.9072 35.1825 30.1035 29.426 30.1035C25.5186 30.1035 22.6812 28.2525 21.3642 24.9229V38H20.0491V8.18345ZM29.426 28.9518C34.3197 28.9518 37.5278 25.2497 37.5278 18.9173C37.5278 12.585 34.3197 8.88284 29.426 8.88284C24.5323 8.88284 21.3642 12.583 21.3642 18.9173C21.3642 25.2517 24.5323 28.9518 29.426 28.9518V28.9518Z" fill="white"/>
<path d="M50.8699 30.1035C45.4023 30.1035 41.8237 25.9072 41.8237 18.9173C41.8237 11.9275 45.4103 7.73114 50.8699 7.73114C56.3813 7.73114 59.8364 11.5549 59.8364 18.218V18.999H43.1806V19.3278C43.1806 25.2497 46.4285 28.9518 50.8699 28.9518C54.3668 28.9518 57.1623 26.8118 58.1507 23.2751H59.4239C58.4794 27.4395 55.106 30.1035 50.8699 30.1035ZM58.4416 17.8055C58.4416 12.2542 55.3571 8.88284 51.1209 8.88284C46.6397 8.88284 43.5492 12.2144 43.2264 17.8055H58.4416Z" fill="white"/>
<path d="M68.5558 7.73907C68.9515 8.13558 69.2643 8.60686 69.4761 9.12547C69.6878 9.64407 69.7942 10.1996 69.7892 10.7598C69.799 11.3148 69.6958 11.866 69.4858 12.3798C69.2758 12.8936 68.9635 13.3594 68.5677 13.7486C67.7614 14.5615 66.6661 15.0222 65.5211 15.0298C64.3937 15.0194 63.3156 14.5659 62.5196 13.7674C61.7237 12.9688 61.2738 11.8892 61.267 10.7618C61.2693 9.62805 61.7215 8.54159 62.5243 7.74106C62.9129 7.34355 63.3782 7.02922 63.892 6.81719C64.4058 6.60516 64.9574 6.49985 65.5132 6.50767C66.0767 6.50064 66.6359 6.6059 67.1583 6.81732C67.6807 7.02874 68.1558 7.34209 68.5558 7.73907V7.73907ZM62.7893 8.00408C62.0573 8.73501 61.6434 9.72534 61.6376 10.7598C61.6599 11.7841 62.0757 12.7605 62.7989 13.4862C63.522 14.212 64.4969 14.6313 65.5211 14.6572C66.5694 14.6475 67.5717 14.2251 68.3107 13.4816C68.672 13.1277 68.9574 12.7037 69.1492 12.2357C69.3411 11.7677 69.4355 11.2655 69.4265 10.7598C69.4255 10.2482 69.3236 9.74193 69.1267 9.2698C68.9298 8.79768 68.6417 8.36901 68.279 8.00832C67.9163 7.64762 67.486 7.36198 67.0128 7.16774C66.5395 6.97349 66.0327 6.87446 65.5211 6.87629C65.0131 6.86919 64.5089 6.96551 64.0393 7.15939C63.5697 7.35327 63.1444 7.64066 62.7893 8.00408V8.00408ZM65.6666 8.20333C67.0315 8.20333 67.691 8.60184 67.691 9.58218C67.691 10.2537 67.2248 10.7678 66.4815 10.8534L67.6073 13.1787H66.9956L65.9296 10.9371H64.4073V13.1787H63.8912V8.19736L65.6666 8.20333ZM64.4073 10.5167H65.5211C66.613 10.5167 67.0933 10.3374 67.0933 9.54631C67.0933 8.88678 66.5772 8.62376 65.5331 8.62376H64.4073V10.5167Z" fill="white"/>
</svg>
