<svg width="232" height="37" viewBox="0 0 232 37" fill="none" xmlns="http://www.w3.org/2000/svg">
<path fill-rule="evenodd" clip-rule="evenodd" d="M11.2267 0.307484C11.0444 0.378727 10.912 0.497237 10.8315 0.661224C10.7323 0.863158 10.7305 1.14849 10.8271 1.35599C10.863 1.43323 11.5835 2.69879 12.4282 4.16832C13.2728 5.63785 13.9704 6.85694 13.9782 6.87736C13.9896 6.90696 13.8628 6.94656 13.3559 7.07184C6.60716 8.73973 2.03983 11.2061 0.67275 13.9208C0.0201946 15.2166 0.104155 16.5708 0.918451 17.8837C1.37786 18.6244 2.30895 19.5491 3.28491 20.2339C4.99682 21.4352 7.39482 22.5372 10.2492 23.4346C14.1989 24.6762 19.1687 25.6072 24.1404 26.0367C24.5758 26.0743 24.955 26.114 24.9831 26.125C25.0159 26.1377 26.0504 27.8811 27.8792 31.0059C29.444 33.6795 30.7727 35.9361 30.8319 36.0205C30.9782 36.2292 31.1469 36.3791 31.3363 36.4687C31.7236 36.652 32.0523 36.4883 32.2009 36.0383L32.2575 35.867L32.2784 26.3934C32.3036 14.9731 32.299 13.3974 32.2395 13.1285C32.0874 12.4415 31.7949 11.9808 31.2533 11.575C31.1466 11.4951 28.9427 10.1944 26.3558 8.68462C22.5546 6.46619 21.6631 5.93613 21.7089 5.9216C21.7778 5.89979 22.9594 5.74658 23.7319 5.65933C25.6333 5.44452 27.3736 5.31338 29.6944 5.20996C30.6625 5.1668 34.148 5.15051 35.2738 5.18386C37.1326 5.23891 38.4665 5.31335 40.1259 5.45461C41.5543 5.57619 43.6444 5.81438 43.631 5.85406C43.6271 5.86573 41.4876 7.12245 38.8765 8.64681C36.2655 10.1711 34.0535 11.4721 33.961 11.5378C33.8685 11.6035 33.7004 11.7497 33.5874 11.8627C33.2445 12.2056 33.0455 12.5835 32.9346 13.1022L32.8773 13.3704L32.884 24.4782C32.8877 30.5875 32.9006 35.6674 32.9128 35.7668C32.9893 36.391 33.3233 36.666 33.7928 36.4913C33.9168 36.4452 33.985 36.3947 34.1503 36.2264C34.3523 36.0207 34.3858 35.9651 37.2145 31.1324C38.7875 28.445 40.086 26.2306 40.1 26.2113C40.1186 26.1858 40.3322 26.1592 40.8916 26.1126C51.2061 25.2535 59.5438 22.8327 63.4393 19.5659C63.7474 19.3075 64.3185 18.7325 64.5331 18.4647C65.083 17.7783 65.4212 17.0977 65.5735 16.3708C65.6472 16.0197 65.654 15.4031 65.5882 15.0429C65.455 14.3133 65.0492 13.5005 64.4791 12.8213C64.1983 12.4869 63.605 11.9137 63.2222 11.6072C61.2367 10.0172 58.2188 8.64252 54.221 7.50709C53.5736 7.32321 52.1542 6.96163 51.5207 6.81917C51.3837 6.78837 51.2717 6.75334 51.2717 6.74131C51.2717 6.72928 51.9572 5.52703 52.795 4.06965C53.7219 2.45733 54.3376 1.35985 54.3676 1.26662C54.4924 0.87876 54.3461 0.511358 53.9942 0.328627C53.8354 0.246173 53.4763 0.234836 53.2459 0.304981C53.1135 0.345276 52.0061 0.980288 48.6134 2.96134L44.1549 5.56472L43.7489 5.51656C42.6162 5.38217 40.8842 5.2249 39.5638 5.13652C34.3361 4.78666 29.1149 4.85098 23.9872 5.32842C23.3304 5.38957 21.6711 5.57126 21.319 5.62059C21.1625 5.6425 21.146 5.63974 21.0253 5.57141C20.955 5.5316 18.9171 4.34255 16.4968 2.92909C13.9186 1.42345 12.0339 0.338203 11.9459 0.308556C11.7464 0.241347 11.3972 0.240811 11.2267 0.307484ZM51.6061 7.46039C56.4839 8.87088 59.6798 10.8207 60.5294 12.9046C60.9771 14.0027 60.7935 15.0823 59.9704 16.192C59.7354 16.5087 59.1272 17.1129 58.7408 17.4134C56.1657 19.4158 51.6389 21.0036 45.6667 21.9992C44.3046 22.2263 42.2163 22.4957 40.8916 22.6152C40.8073 22.6228 40.6953 22.6353 40.6425 22.643L40.5467 22.657L40.5596 16.2925L48.1692 12.1171L49.5592 9.69866C50.3236 8.3685 50.9567 7.28018 50.966 7.28018C50.9753 7.28018 51.2634 7.36128 51.6061 7.46039ZM15.6611 9.79444L16.9952 12.1155L24.6001 16.2887L24.6217 19.4213C24.6336 21.1442 24.6368 22.5604 24.6287 22.5685C24.5983 22.5989 22.6716 22.3723 21.4337 22.1927C16.0555 21.4125 11.603 20.1062 8.67879 18.4506C8.23177 18.1975 7.46471 17.6852 7.10837 17.4017C6.71887 17.0918 6.14714 16.5142 5.90238 16.1833C5.39002 15.4907 5.16265 14.905 5.13625 14.2099C5.11978 13.7759 5.15216 13.5224 5.27123 13.1531C5.53107 12.3473 6.16136 11.5296 7.10837 10.7698C7.45404 10.4924 8.21701 9.98195 8.67879 9.71904C9.50271 9.24995 10.6905 8.70656 11.7941 8.29391C12.6055 7.99047 14.2388 7.45367 14.3054 7.46851C14.3173 7.47116 14.9273 8.51783 15.6611 9.79444Z" fill="#333333"/>
<path fill-rule="evenodd" clip-rule="evenodd" d="M114.872 7.542C109.693 7.76716 105.658 10.0134 103.706 13.7578C103.166 14.7948 102.835 15.7675 102.6 17.0128C102.458 17.7614 102.43 19.687 102.548 20.5034C102.744 21.8542 103.084 22.9361 103.674 24.0819C104.324 25.3447 105.234 26.4781 106.332 27.3924C108.045 28.8193 110.523 29.8521 113.094 30.2107C117.357 30.8053 121.28 30.027 123.954 28.056C124.555 27.6128 125.518 26.6545 125.942 26.0765C126.819 24.8819 127.405 23.4874 127.684 21.9286L127.792 21.3247H126.245C125.394 21.3247 124.698 21.3403 124.698 21.3595C124.698 21.3786 124.645 21.6554 124.58 21.9745C123.928 25.1713 121.4 27.4482 117.805 28.0758C116.827 28.2465 115.02 28.2634 113.933 28.1121C110.691 27.6609 108.286 26.2176 106.859 23.866C105.042 20.8731 105.094 16.7437 106.984 13.8449C108.629 11.3216 111.348 9.92152 115.015 9.70839C117.153 9.58419 119.127 9.94052 120.72 10.7384C121.619 11.1887 122.036 11.4845 122.723 12.1608C123.423 12.8497 123.887 13.589 124.202 14.5196L124.331 14.9009L125.864 14.9165C127.07 14.9288 127.396 14.9164 127.395 14.8579C127.392 14.6699 127.158 13.7465 127.022 13.3864C125.912 10.4447 122.689 8.3263 118.353 7.68862C118.01 7.63805 117.442 7.58289 117.092 7.566C116.742 7.54916 116.31 7.5277 116.133 7.51825C115.956 7.50887 115.388 7.51954 114.872 7.542ZM164.15 7.547C157.467 7.8273 152.753 11.58 151.889 17.3081C151.759 18.1652 151.759 19.735 151.888 20.5914C152.27 23.134 153.289 25.1285 155.094 26.8685C156.33 28.0602 157.794 28.9316 159.59 29.545C162.425 30.513 166.114 30.675 169.283 29.9706C171.954 29.3771 174.343 28.0315 175.92 26.2325C179.854 21.7431 179.411 14.5818 174.96 10.7198C172.301 8.4123 168.702 7.3561 164.15 7.547ZM87.0484 8.4908C86.4492 9.60895 75.8918 29.7552 75.8555 29.8498C75.8206 29.9407 75.947 29.9484 77.4817 29.9484H79.1456L82.4879 23.2606L95.043 23.2637L98.4321 29.9484H101.766L100.445 27.3525C99.7184 25.9247 97.1994 20.9815 94.847 16.3675L90.57 7.97842L87.3396 7.94726L87.0484 8.4908ZM128.394 10.1197H138.191V29.9484H141.242V10.1197H151.039V7.94908H128.394V10.1197ZM182.366 29.9484H185.416V19.6821H198.85V17.5115H185.416V10.1197H200.552V7.94908H182.366V29.9484ZM203.661 29.9484H206.712V7.94908H203.661V29.9484ZM209.117 10.1197H218.914V29.9484H222.023V10.1197H231.761V7.94908H209.117V10.1197ZM166.06 9.70839C169.013 9.87992 171.221 10.7664 172.925 12.4645C174.194 13.7294 174.928 15.1053 175.335 16.9835C175.452 17.5244 175.469 17.7639 175.469 18.9487C175.469 20.1327 175.452 20.3735 175.335 20.914C174.661 24.0288 172.829 26.2312 169.939 27.404C169.28 27.671 168.084 27.9781 167.198 28.1074C166.357 28.2302 164.186 28.2478 163.417 28.1381C161.101 27.8077 159.431 27.1364 157.984 25.9539C154.92 23.4505 153.958 18.6441 155.759 14.8326C156.961 12.2881 159.326 10.5397 162.361 9.95255C163.268 9.77709 163.433 9.75573 164.238 9.71003C164.641 9.68715 164.998 9.66473 165.03 9.66021C165.062 9.65569 165.526 9.67741 166.06 9.70839ZM91.3727 15.8927C92.7622 18.7277 93.899 21.0569 93.899 21.0687C93.899 21.0804 91.5759 21.09 88.7365 21.09C85.8971 21.09 83.574 21.0743 83.574 21.0551C83.574 20.996 88.8078 10.6994 88.8277 10.7194C88.838 10.7296 89.9833 13.0576 91.3727 15.8927Z" fill="#333333"/>
</svg>
