<svg width="200" height="163" viewBox="0 0 200 163" fill="none" xmlns="http://www.w3.org/2000/svg">
<g clip-path="url(#clip0_39_970)">
<path d="M0 31.3891V118.836H200V31.372C200 31.372 187.095 27.3587 183.766 26.3255C183.766 22.6367 183.766 0.136623 183.766 0.136623H129.58C129.58 0.136623 129.58 6.45543 129.58 9.47821C123.041 7.45448 99.0769 0 99.0769 0L0 31.3891Z" fill="#FAEA26"/>
<path d="M180.5 28.5454V3.21045H132.853V13.7304L99.0845 3.23607L3.26343 33.5834V33.6859V115.668V115.771H196.734V115.668V33.6859V33.5834L180.5 28.5454Z" fill="#EE1D24"/>
<path d="M22.564 70.3864V61.0789L22.5366 69.8484C22.5366 70.0363 22.5457 70.2156 22.564 70.3864Z" fill="white"/>
<path d="M26.2744 96.6607L24.8102 85.8334H22.582L24.9011 101.272H28.4026L31.0946 85.8334H27.5022L26.2744 96.6607Z" fill="white"/>
<path d="M19.5796 96.6778L18.4428 85.8334H14.7867L17.4969 101.272H21.6896L22.4444 94.6883L21.1348 85.9615L19.5796 96.6778Z" fill="white"/>
<path d="M41.8073 85.8334L38.2786 101.272H42.0892L42.5348 98.2661H44.2537L43.9081 95.5507H42.9441L44.09 88.6342L44.9358 94.193L44.9995 94.6285L45.1359 95.5507L45.627 98.915L46.0454 101.272H49.8742L46.3637 85.8334H41.8073Z" fill="white"/>
<path d="M45.1367 95.5498L45.0001 94.6284L45.1367 95.5498Z" fill="white"/>
<path d="M68.1643 95.6531C68.1006 94.5858 67.3457 93.8856 66.2908 93.6123C67.8823 92.9121 68.2916 91.7423 68.2916 90.0943C68.2916 87.0288 66.7455 85.8334 63.6442 85.8334H62.3346V88.6085C63.8807 88.6 64.5537 88.8049 64.5537 90.4871C64.5537 91.4349 64.299 92.3998 63.1986 92.3998H62.3346V95.1749H63.1531C64.0353 95.2347 64.3354 95.8581 64.4446 96.7973C64.5537 97.7452 64.4627 99.0175 64.5264 100.375C64.5446 100.683 64.6355 100.973 64.7447 101.263H68.8737V101.058C68.7009 100.913 68.5917 100.725 68.5099 100.52C68.2916 99.5383 68.2734 96.8827 68.1643 95.6531Z" fill="white"/>
<path d="M60.8796 85.8334H58.1149V101.263H60.8796V85.8334Z" fill="white"/>
<path d="M80.3862 85.8334H77.3304V101.263H80.3862V85.8334Z" fill="white"/>
<path d="M86.2518 98.1807H81.8318V101.263H86.2518V98.1807Z" fill="white"/>
<path d="M85.8425 91.7592H81.8318V94.8503H85.8425V91.7592Z" fill="white"/>
<path d="M85.9971 85.8334H81.8318V88.9159H85.9971V85.8334Z" fill="white"/>
<path d="M101.549 91.7594H99.5392V94.8505H101.549V101.272H105.342V85.8334H101.549V91.7594Z" fill="white"/>
<path d="M98.0951 85.8334H95.1484V101.263H98.0951V85.8334Z" fill="white"/>
<path d="M120.103 85.4916V88.4205C120.676 88.7791 120.721 89.5989 120.721 90.3247V96.6606C120.721 97.3351 120.676 98.2659 120.103 98.6672V101.613C123.395 101.4 124.514 99.6065 124.514 96.3446V90.0685C124.514 87.319 122.968 85.7051 120.103 85.4916Z" fill="white"/>
<path d="M114.246 90.0685V96.3446C114.246 99.5809 115.401 101.374 118.648 101.605V98.6074C118.111 98.189 118.029 97.301 118.029 96.652V90.3161C118.029 89.6159 118.111 88.8133 118.648 88.4376V85.4916C115.81 85.7307 114.246 87.3446 114.246 90.0685Z" fill="white"/>
<path d="M137.203 97.4805V85.8334H133.42V97.0023C133.42 99.9141 135.002 101.383 137.74 101.605V98.6845C137.321 98.4539 137.203 97.9928 137.203 97.4805Z" fill="white"/>
<path d="M139.811 97.378C139.811 97.8562 139.647 98.4198 139.193 98.693V101.613C142.521 101.383 143.604 99.4615 143.604 97.0023V85.8334H139.82V97.378H139.811Z" fill="white"/>
<path d="M157.674 88.4548C158.256 88.8561 158.229 89.7612 158.265 90.47H161.748C161.903 87.7887 160.484 85.7906 157.674 85.5089V88.4548Z" fill="white"/>
<path d="M155.491 97.19V96.097H151.98V97.745C151.98 99.6406 153.254 101.383 156.219 101.605V98.7013C155.655 98.4452 155.491 97.8475 155.491 97.19Z" fill="white"/>
<path d="M156.845 91.1615C156.09 90.6662 155.599 90.1966 155.708 89.2658C155.753 88.8645 155.935 88.5657 156.226 88.3863V85.4916C153.725 85.7222 152.197 87.1909 152.197 89.8465C152.197 91.2042 152.607 92.152 153.298 92.929C154.007 93.7146 154.998 94.3124 156.163 94.9442C157.154 95.5163 158.272 96.0116 158.272 97.3095C158.272 97.8475 158.091 98.3854 157.681 98.6587V101.596C160.337 101.348 161.774 99.7346 161.774 97.0192C161.774 95.1492 161.256 94.116 160.373 93.3389C159.491 92.5619 158.263 92.0325 156.845 91.1615Z" fill="white"/>
<path d="M179.075 91.7592H175.137V94.8503H179.075V91.7592Z" fill="white"/>
<path d="M173.69 85.8334H170.552V101.263H173.69V85.8334Z" fill="white"/>
<path d="M179.221 85.8334H175.137V88.9159H179.221V85.8334Z" fill="white"/>
<path d="M179.484 98.1807H175.137V101.263H179.484V98.1807Z" fill="white"/>
<path d="M28.3109 68.0808C28.3109 70.0619 28.0836 72.7431 25.3825 72.7431C25.2188 72.7431 25.0732 72.7345 24.9277 72.726V78.5666C32.9492 78.5239 36.2506 74.6558 36.2506 69.1226V65.152H28.3109V68.0808Z" fill="white"/>
<path d="M25.6462 50.482C27.1377 50.482 28.1745 51.908 28.1745 54.6661V56.7325H36.1141V54.0171C36.1141 47.4165 32.0579 44.6584 25.2915 44.6584H24.9277V50.5076C25.146 50.4905 25.3916 50.4735 25.6462 50.482Z" fill="white"/>
<path d="M14.6423 54.9651V68.2516C14.6423 74.135 16.8978 77.7213 22.5638 78.43V70.3778C22.5456 70.207 22.5365 70.0277 22.5365 69.8484L22.5638 61.0789V44.8379C17.1797 45.6064 14.6423 48.8853 14.6423 54.9651Z" fill="white"/>
<path d="M62.8422 77.764V45.41H54.9026V57.8342H50.4189V64.3067H54.9026V77.764H62.8422Z" fill="white"/>
<path d="M48.0652 45.41H41.4625V77.7726H48.0652V45.41Z" fill="white"/>
<path d="M86.8641 71.2914H77.342V77.7639H86.8641V71.2914Z" fill="white"/>
<path d="M74.9847 45.41H68.1455V77.7726H74.9847V45.41Z" fill="white"/>
<path d="M86.3275 45.41H77.342V51.8825H86.3275V45.41Z" fill="white"/>
<path d="M86.0092 57.8341H77.342V64.3066H86.0092V57.8341Z" fill="white"/>
<path d="M108.728 59.431L111.456 73.358L116.086 52.3949H116.167L115.358 77.764H122.934V45.41H111.838L108.728 59.431Z" fill="white"/>
<path d="M103.406 45.41H92.2201V77.764H99.7505L99.032 52.3949H99.1229L104.58 77.764H109.936L105.535 55.3323L103.406 45.41Z" fill="white"/>
<path d="M136.721 45.41H128.781V77.7726H136.721V45.41Z" fill="white"/>
<path d="M154.282 55.1101H161.585C161.93 49.3036 158.738 45.0256 152.445 44.6499V50.593C154.264 51.1993 154.2 53.4279 154.282 55.1101Z" fill="white"/>
<path d="M148.461 69.2251V66.9367H141.112V70.3864C141.112 74.3827 143.795 78.0459 150.098 78.4899V72.4443C148.824 71.9064 148.461 70.6255 148.461 69.2251Z" fill="white"/>
<path d="M152.446 72.5979V78.5154C158.394 78.1739 161.632 74.7668 161.632 68.8835C161.632 64.9556 160.55 62.7953 158.703 61.1558C156.857 59.5163 154.283 58.3977 151.309 56.5789C149.736 55.5457 148.69 54.5552 148.918 52.6083C149.027 51.7288 149.427 51.0713 150.1 50.7212V44.6927C144.807 45.1539 141.569 48.2279 141.569 53.8209C141.569 56.6643 142.424 58.6539 143.87 60.2934C145.362 61.9328 147.435 63.1881 149.872 64.5201C151.946 65.7327 154.292 66.7659 154.292 69.4812C154.283 70.856 153.719 72.1966 152.446 72.5979Z" fill="white"/>
<path d="M165.312 45.41V51.8825H171.542V77.764H179.482V51.8825H185.885V45.41H165.312Z" fill="white"/>
<path d="M24.9267 44.6584H24.9086V50.5076H24.9267V44.6584Z" fill="white"/>
<path d="M24.9086 72.7258V78.5665H24.9267V72.7258C24.9177 72.7258 24.9177 72.7258 24.9086 72.7258Z" fill="white"/>
<path d="M42.4273 34.805H42.7456C42.9275 35.5992 43.2185 36.1713 43.6096 36.5299C44.0098 36.8885 44.4645 37.0678 44.9829 37.0678C45.4831 37.0678 45.8378 36.9483 46.056 36.7007C46.2652 36.453 46.3744 36.1969 46.3744 35.9236C46.3744 35.6077 46.2652 35.343 46.047 35.1466C45.9014 35.0185 45.6013 34.8477 45.1648 34.6343L44.4463 34.2927C43.7369 33.9511 43.2276 33.6181 42.9366 33.2851C42.6456 32.9521 42.5001 32.5422 42.5001 32.0555C42.5001 31.5346 42.6911 31.0565 43.0821 30.6039C43.4732 30.1513 44.0643 29.9293 44.8647 29.9293C45.2739 29.9293 45.665 29.9891 46.047 30.1086C46.4289 30.2282 46.6472 30.288 46.7018 30.288C46.82 30.288 46.9109 30.2538 46.9564 30.1855C47.0019 30.1172 47.0383 30.0318 47.0655 29.9208H47.402V32.2263H47.0928C46.9473 31.6883 46.6836 31.2272 46.3198 30.843C45.9469 30.4587 45.5013 30.2623 44.9647 30.2623C44.5918 30.2623 44.3008 30.3563 44.0825 30.5527C43.8643 30.749 43.7551 30.9881 43.7551 31.2614C43.7551 31.5944 43.8552 31.8506 44.0552 32.0128C44.2553 32.1836 44.701 32.4312 45.3921 32.7557L46.2198 33.1485C46.5926 33.3278 46.8837 33.5242 47.1019 33.7377C47.5112 34.139 47.7204 34.6257 47.7204 35.1978C47.7204 35.7358 47.5021 36.2396 47.0565 36.7092C46.6108 37.1874 45.9105 37.4179 44.9374 37.4179C44.71 37.4179 44.4827 37.4009 44.2553 37.3582C44.028 37.3155 43.8006 37.2557 43.5732 37.1789L43.355 37.102C43.3095 37.0849 43.2549 37.0764 43.2094 37.0678C43.164 37.0593 43.1185 37.0593 43.0912 37.0593C42.973 37.0593 42.9002 37.0935 42.8548 37.1532C42.8093 37.2215 42.7729 37.3069 42.7456 37.4265H42.4182V34.805H42.4273Z" fill="white"/>
<path d="M48.473 32.8578V32.5589C48.5731 32.4735 48.6913 32.3711 48.8368 32.2515C49.0278 32.0807 49.2188 31.91 49.3916 31.7306C49.7281 31.3806 50.0373 30.9963 50.3192 30.595H50.6011V32.3881H51.6743V32.8578H50.6011V36.0513C50.6011 36.1965 50.6284 36.3246 50.6739 36.4271C50.7467 36.5808 50.8649 36.6576 51.0377 36.6576C51.1832 36.6576 51.3105 36.6064 51.4015 36.5124C51.5015 36.4185 51.6015 36.2819 51.7016 36.1026L51.9744 36.2307C51.8471 36.521 51.6834 36.7601 51.5015 36.9394C51.1832 37.2639 50.783 37.4176 50.3192 37.4176C50.0555 37.4176 49.8281 37.3663 49.628 37.281C49.2461 37.1016 49.0551 36.7772 49.0551 36.299V32.8578H48.473Z" fill="white"/>
<path d="M53.0113 33.003C53.4933 32.5078 54.1027 32.2601 54.8302 32.2601C55.576 32.2601 56.1853 32.5078 56.6583 33.0201C57.1312 33.5239 57.3676 34.1387 57.3676 34.856C57.3676 35.5647 57.1312 36.171 56.6673 36.6833C56.1944 37.1956 55.5851 37.4433 54.8302 37.4433C54.0936 37.4433 53.4933 37.1956 53.0113 36.7004C52.5293 36.2051 52.2928 35.5903 52.2928 34.856C52.2838 34.1131 52.5293 33.4897 53.0113 33.003ZM54.0572 36.41C54.1845 36.8711 54.4392 37.1017 54.8211 37.1017C55.1849 37.1017 55.4214 36.9224 55.5396 36.5723C55.6488 36.2222 55.7124 35.6501 55.7124 34.856C55.7124 34.0618 55.6578 33.4897 55.5305 33.1396C55.4123 32.7895 55.1758 32.6102 54.8302 32.6102C54.4483 32.6102 54.1936 32.8408 54.0663 33.3019C53.9844 33.6093 53.939 34.1302 53.939 34.8645C53.939 35.5903 53.9844 36.1112 54.0572 36.41Z" fill="white"/>
<path d="M57.8676 39.2108C58.1131 39.1852 58.2768 39.134 58.3587 39.0486C58.4496 38.9717 58.486 38.818 58.486 38.5875V33.2592C58.486 33.0372 58.4405 32.8835 58.3587 32.8066C58.2768 32.7298 58.1131 32.67 57.8857 32.6444V32.3882H60.0321V33.0884C60.1867 32.8493 60.3322 32.67 60.4868 32.559C60.7506 32.3626 61.0871 32.2601 61.4963 32.2601C62.0875 32.2601 62.5786 32.4651 62.9696 32.8835C63.3607 33.3019 63.5517 33.9252 63.5517 34.7535C63.5517 35.522 63.3425 36.1624 62.9242 36.6662C62.5058 37.17 61.9965 37.4262 61.3963 37.4262C61.0871 37.4262 60.796 37.3408 60.5232 37.17C60.3777 37.0846 60.2231 36.9565 60.0685 36.7858V37.6824C60.0685 38.1605 60.0775 38.4252 60.0775 38.485C60.1048 38.7668 60.1776 38.9547 60.3049 39.0571C60.4322 39.1596 60.6414 39.2194 60.9415 39.2364V39.4499H57.8676V39.2108ZM61.7873 36.077C61.8601 35.7952 61.9056 35.3939 61.9056 34.873C61.9056 34.2668 61.851 33.7801 61.7328 33.4214C61.6145 33.0628 61.3781 32.8835 61.0143 32.8835C60.7687 32.8835 60.5596 32.9859 60.3686 33.1823C60.1776 33.3787 60.0866 33.5239 60.0866 33.6178V36.1966C60.0866 36.299 60.1776 36.4357 60.3595 36.5979C60.5414 36.7601 60.7415 36.8455 60.9688 36.8455C61.369 36.837 61.6418 36.5808 61.7873 36.077Z" fill="white"/>
<path d="M66.9269 37.0079C67.2998 36.9822 67.5453 36.9139 67.6726 36.7858C67.8 36.6663 67.8636 36.4101 67.8636 36.0344V31.3465C67.8636 30.9452 67.8 30.6976 67.6726 30.5951C67.5453 30.4927 67.2998 30.4158 66.9269 30.3817V30.1169H70.5465C71.5106 30.1169 72.2381 30.2621 72.7383 30.561C73.2385 30.8513 73.4932 31.3551 73.4932 32.0724C73.4932 32.4225 73.3931 32.7469 73.2022 33.0543C73.0021 33.3617 72.6838 33.6094 72.229 33.7887C71.8834 33.9168 71.5469 34.0022 71.2104 34.0278C70.8739 34.0534 70.3646 34.0705 69.6916 34.0705V36.0515C69.6916 36.4443 69.7644 36.7005 69.9008 36.82C70.0372 36.9395 70.301 37.0079 70.683 37.0249V37.2982H66.936V37.0079H66.9269ZM71.0285 33.4727C71.3832 33.2593 71.5651 32.7982 71.5651 32.0894C71.5651 31.6027 71.4742 31.2185 71.3105 30.9196C71.1377 30.6207 70.8103 30.4756 70.3192 30.4756C70.0918 30.4756 69.9372 30.5012 69.8372 30.5524C69.7371 30.6037 69.6916 30.6976 69.6916 30.8428V33.6948C70.3555 33.6862 70.8012 33.6094 71.0285 33.4727Z" fill="white"/>
<path d="M74.6396 35.1548C75.1307 34.873 75.8947 34.5913 76.9315 34.3095V33.541C76.9315 33.225 76.8587 32.9945 76.7223 32.8408C76.5768 32.6871 76.3312 32.6188 75.9674 32.6188C75.7673 32.6188 75.6036 32.6529 75.4672 32.7212C75.3399 32.7895 75.2671 32.8835 75.2671 32.9859C75.2671 33.0286 75.2762 33.0628 75.2853 33.0884C75.3035 33.114 75.3217 33.1482 75.349 33.1738L75.4127 33.2421C75.4672 33.3019 75.5036 33.3617 75.54 33.4385C75.5673 33.5068 75.5855 33.5837 75.5855 33.6605C75.5855 33.8654 75.5127 34.0191 75.3763 34.1216C75.2308 34.2326 75.0671 34.2839 74.8852 34.2839C74.6669 34.2839 74.485 34.2241 74.3304 34.1045C74.1758 33.985 74.103 33.8057 74.103 33.5837C74.103 33.1738 74.3031 32.8579 74.7124 32.6188C75.1216 32.3797 75.6218 32.2601 76.213 32.2601C76.8496 32.2601 77.3862 32.3797 77.8136 32.6102C78.2411 32.8493 78.4503 33.2763 78.4503 33.9081V36.4784C78.4503 36.5552 78.4685 36.6235 78.5139 36.6748C78.5594 36.726 78.6049 36.7516 78.6503 36.7516C78.6958 36.7516 78.7322 36.7431 78.7686 36.726C78.805 36.7089 78.8595 36.6662 78.9323 36.5979L79.1051 36.8199C78.8868 37.059 78.6413 37.2298 78.3775 37.3237C78.2047 37.3835 78.0319 37.4176 77.8409 37.4176C77.5044 37.4176 77.268 37.3237 77.1134 37.1444C77.0224 37.0419 76.9587 36.8882 76.9224 36.6833C76.6132 36.9736 76.2585 37.1871 75.8674 37.3066C75.6309 37.3835 75.3945 37.4176 75.1671 37.4176C74.8579 37.4176 74.576 37.3237 74.3031 37.1444C74.0394 36.9565 73.903 36.6748 73.903 36.282C73.903 35.8123 74.1485 35.4281 74.6396 35.1548ZM76.6041 36.5125C76.695 36.4527 76.795 36.3503 76.9133 36.2222V34.6681C76.6131 34.7364 76.3494 34.8474 76.122 34.9926C75.7401 35.2488 75.5491 35.5647 75.5491 35.9575C75.5491 36.188 75.6036 36.3674 75.7128 36.4869C75.8219 36.6064 75.9492 36.6662 76.0857 36.6662C76.2676 36.6748 76.4404 36.6235 76.6041 36.5125Z" fill="white"/>
<path d="M79.4854 38.1094C79.64 37.9984 79.8309 37.9386 80.0492 37.9386C80.2402 37.9386 80.3948 37.9898 80.5221 38.0923C80.6404 38.1948 80.704 38.3143 80.704 38.4509L80.6767 38.6815C80.6767 38.7242 80.6949 38.7669 80.7313 38.8096C80.7677 38.8437 80.8132 38.8694 80.8768 38.8694C81.0769 38.8694 81.2588 38.7242 81.4225 38.4339C81.5316 38.2546 81.6772 37.9045 81.8772 37.3921L80.5403 34.284C80.4494 34.0619 80.3493 33.857 80.2584 33.6606C80.1675 33.4642 80.0765 33.2764 79.9765 33.097C79.8764 32.9092 79.7946 32.7896 79.7309 32.7469C79.6763 32.6957 79.5672 32.6701 79.4126 32.653V32.3969H82.2228V32.653C82.05 32.653 81.9045 32.6786 81.7954 32.7128C81.6862 32.7469 81.6317 32.8238 81.6317 32.9348C81.6317 32.9604 81.6408 32.9946 81.6499 33.0373C81.659 33.08 81.6862 33.1483 81.7317 33.2593L82.6321 35.3428H82.6866L83.4324 33.4813C83.4688 33.3788 83.4961 33.2849 83.5233 33.208C83.5506 33.1312 83.5597 33.0629 83.5597 33.0031C83.5597 32.858 83.5052 32.764 83.4051 32.7213C83.3051 32.6786 83.1414 32.6616 82.9413 32.653V32.3969H84.642V32.653C84.4965 32.6616 84.3782 32.7043 84.2782 32.764C84.1873 32.8238 84.0872 32.986 83.9872 33.2251L82.3047 37.4519C81.9773 38.2289 81.6953 38.7584 81.4589 39.0401C81.2224 39.3219 80.8586 39.4585 80.3493 39.4585C79.9856 39.4585 79.7036 39.3732 79.5126 39.2024C79.3217 39.0316 79.2307 38.8437 79.2307 38.6388C79.2489 38.3997 79.3308 38.2289 79.4854 38.1094Z" fill="white"/>
<path d="M85.0609 37.0248C85.261 36.9907 85.3974 36.948 85.4702 36.8882C85.5793 36.7943 85.6339 36.6235 85.6339 36.3844V33.2677C85.6339 33.0542 85.5975 32.9091 85.5156 32.8237C85.4429 32.7468 85.2883 32.687 85.0609 32.6529V32.3967H87.2254V36.4271C87.2254 36.6577 87.2618 36.8028 87.3346 36.8711C87.4073 36.9394 87.5437 36.9907 87.7438 37.0248V37.281H85.0609V37.0248ZM85.8067 30.1937C85.9795 30.0314 86.1795 29.9546 86.4251 29.9546C86.6616 29.9546 86.8707 30.0314 87.0344 30.1937C87.2072 30.3559 87.2891 30.5523 87.2891 30.7743C87.2891 31.0049 87.2072 31.1927 87.0344 31.355C86.8707 31.5172 86.6707 31.5941 86.4251 31.5941C86.1795 31.5941 85.9795 31.5172 85.8067 31.355C85.6339 31.1927 85.552 30.9963 85.552 30.7743C85.552 30.5438 85.6339 30.3559 85.8067 30.1937Z" fill="white"/>
<path d="M88.1912 37.0248C88.4003 36.9992 88.5459 36.948 88.6459 36.8626C88.7459 36.7772 88.7914 36.6235 88.7914 36.3759V33.2592C88.7914 33.0457 88.755 32.892 88.6732 32.8066C88.5913 32.7212 88.4367 32.67 88.1912 32.6358V32.3797H90.3284V33.1396C90.5103 32.8835 90.7376 32.67 91.0105 32.5078C91.2833 32.337 91.5925 32.2601 91.929 32.2601C92.411 32.2601 92.793 32.3797 93.0568 32.6102C93.3205 32.8493 93.4569 33.2592 93.4569 33.8484V36.41C93.4569 36.6491 93.5024 36.8028 93.5843 36.8711C93.6752 36.9395 93.8116 36.9907 94.0208 37.0078V37.2639H91.3743V37.0078C91.5743 36.9736 91.7108 36.9138 91.7835 36.8541C91.8563 36.7858 91.8927 36.6406 91.8927 36.41V33.8398C91.8927 33.6007 91.8654 33.4214 91.8199 33.2933C91.729 33.0713 91.5562 32.9689 91.3015 32.9689C91.1105 32.9689 90.9286 33.0372 90.7649 33.1653C90.6012 33.3019 90.4739 33.43 90.392 33.5666V36.4015C90.392 36.6321 90.4284 36.7772 90.5012 36.8455C90.5739 36.9138 90.7104 36.9651 90.9104 36.9992V37.2554H88.2003V37.0248H88.1912Z" fill="white"/>
<path d="M94.7296 38.0324C94.866 37.8702 95.0933 37.7677 95.4208 37.7165V37.6482C95.2025 37.5713 95.0388 37.486 94.9387 37.4091C94.7659 37.2639 94.675 37.059 94.675 36.8114C94.675 36.5125 94.8114 36.2649 95.0933 36.0514C95.3662 35.8379 95.639 35.6928 95.9028 35.6074V35.5305C95.5208 35.3854 95.2116 35.1804 94.9751 34.9072C94.7387 34.634 94.6204 34.3095 94.6204 33.9252C94.6204 33.4385 94.8296 33.0457 95.2389 32.7298C95.6481 32.4138 96.2029 32.2601 96.9032 32.2601C97.1669 32.2601 97.4125 32.2857 97.6308 32.337C97.849 32.3882 98.0218 32.4309 98.1401 32.4907H99.6225V33.0543H98.713C98.8586 33.1909 98.9677 33.3446 99.0495 33.5239C99.1314 33.7032 99.1678 33.8996 99.1678 34.1131C99.1678 34.7791 98.8313 35.2317 98.1583 35.4708C97.8036 35.5989 97.367 35.6672 96.8486 35.6672C96.7395 35.6672 96.6576 35.6672 96.6304 35.6586C96.594 35.6586 96.5394 35.6586 96.4757 35.6586C96.3666 35.6757 96.2484 35.7269 96.1301 35.8209C96.0028 35.9148 95.9392 36.0343 95.9392 36.171C95.9392 36.282 95.9664 36.3588 96.0301 36.4186C96.0938 36.4784 96.1756 36.5125 96.2848 36.5296C96.3393 36.5381 96.4576 36.5381 96.6395 36.5467C96.8213 36.5552 96.9578 36.5552 97.0578 36.5552L97.7854 36.5638C98.1946 36.5723 98.5493 36.6235 98.8313 36.7345C99.3679 36.9395 99.6407 37.3152 99.6407 37.8446C99.6407 38.5362 99.2405 39.0059 98.4311 39.2706C98.0037 39.4072 97.4671 39.4755 96.8304 39.4755C96.3029 39.4755 95.8482 39.4243 95.4662 39.3304C94.8387 39.1681 94.5204 38.8949 94.5204 38.5021C94.5295 38.3484 94.5931 38.1947 94.7296 38.0324ZM95.8846 38.9461C96.1301 39.0742 96.4939 39.134 96.9578 39.134C97.3761 39.134 97.7217 39.0998 97.9946 39.04C98.5039 38.9205 98.7585 38.707 98.7585 38.3911C98.7585 38.2118 98.6858 38.0666 98.5402 37.9812C98.3947 37.8873 98.131 37.8446 97.749 37.8446H95.9028C95.7845 37.9385 95.7027 38.0154 95.6481 38.0751C95.5572 38.1861 95.5117 38.3142 95.5117 38.4423C95.5117 38.6558 95.639 38.8266 95.8846 38.9461ZM96.2757 34.8816C96.3848 35.189 96.594 35.3512 96.9032 35.3512C97.1851 35.3512 97.3761 35.2317 97.4853 35.0011C97.5944 34.7706 97.649 34.429 97.649 33.9765C97.649 33.4983 97.5944 33.1567 97.4853 32.9347C97.3761 32.7212 97.1851 32.6102 96.9123 32.6102C96.6122 32.6102 96.4212 32.7298 96.3211 32.9603C96.2211 33.1909 96.1756 33.5324 96.1756 33.9765C96.1665 34.3863 96.2029 34.6852 96.2757 34.8816Z" fill="white"/>
<path d="M102.806 30.1083H109.581L109.59 32.243H109.263C109.154 31.4745 108.854 30.9622 108.353 30.6889C108.072 30.5438 107.653 30.4584 107.089 30.4413V36.0257C107.089 36.4185 107.162 36.6747 107.308 36.8028C107.453 36.9309 107.753 36.9906 108.208 36.9906V37.2639H104.197V36.9906C104.634 36.9906 104.925 36.9223 105.07 36.7943C105.216 36.6662 105.289 36.41 105.289 36.0172V30.4328C104.743 30.4498 104.315 30.5267 104.024 30.6804C103.488 30.9536 103.179 31.4745 103.115 32.2345H102.788L102.806 30.1083Z" fill="white"/>
<path d="M109.953 33.003C110.435 32.5078 111.044 32.2601 111.772 32.2601C112.518 32.2601 113.127 32.5078 113.6 33.0201C114.073 33.5239 114.309 34.1387 114.309 34.856C114.309 35.5647 114.073 36.171 113.609 36.6833C113.136 37.1956 112.527 37.4433 111.772 37.4433C111.044 37.4433 110.435 37.1956 109.953 36.7004C109.471 36.2051 109.235 35.5903 109.235 34.856C109.235 34.1131 109.471 33.4897 109.953 33.003ZM111.008 36.41C111.135 36.8711 111.39 37.1017 111.772 37.1017C112.136 37.1017 112.372 36.9224 112.49 36.5723C112.609 36.2222 112.663 35.6501 112.663 34.856C112.663 34.0618 112.6 33.4897 112.481 33.1396C112.363 32.7895 112.127 32.6102 111.781 32.6102C111.399 32.6102 111.144 32.8408 111.017 33.3019C110.935 33.6093 110.89 34.1302 110.89 34.8645C110.89 35.5903 110.926 36.1112 111.008 36.41Z" fill="white"/>
<path d="M115.585 33.003C116.067 32.5078 116.677 32.2601 117.404 32.2601C118.15 32.2601 118.759 32.5078 119.232 33.0201C119.705 33.5239 119.941 34.1387 119.941 34.856C119.941 35.5647 119.705 36.171 119.241 36.6833C118.768 37.1956 118.159 37.4433 117.404 37.4433C116.667 37.4433 116.067 37.1956 115.585 36.7004C115.103 36.2051 114.867 35.5903 114.867 34.856C114.867 34.1131 115.103 33.4897 115.585 33.003ZM116.64 36.41C116.767 36.8711 117.022 37.1017 117.404 37.1017C117.768 37.1017 118.004 36.9224 118.123 36.5723C118.241 36.2222 118.295 35.6501 118.295 34.856C118.295 34.0618 118.232 33.4897 118.113 33.1396C117.995 32.7895 117.759 32.6102 117.413 32.6102C117.031 32.6102 116.777 32.8408 116.649 33.3019C116.567 33.6093 116.522 34.1302 116.522 34.8645C116.522 35.5903 116.558 36.1112 116.64 36.41Z" fill="white"/>
<path d="M123.214 37.0076C123.641 37.0076 123.923 36.9308 124.051 36.7941C124.178 36.6575 124.242 36.444 124.242 36.1622V31.1243C124.242 30.834 124.169 30.6461 124.023 30.5522C123.878 30.4582 123.614 30.3985 123.241 30.3729V30.0996H126.079L128.298 35.0095H128.389L130.59 30.0996H133.427V30.3729C133.045 30.3985 132.782 30.4668 132.645 30.5692C132.509 30.6717 132.436 30.9279 132.436 31.3378V36.0256C132.436 36.4184 132.509 36.6746 132.645 36.7941C132.782 36.9137 133.045 36.982 133.427 36.9991V37.2723H129.689V36.9991C130.026 36.9905 130.271 36.9393 130.444 36.8454C130.617 36.7514 130.699 36.5465 130.699 36.222V31.0389H130.617L127.861 37.2723H127.561L124.778 31.1584H124.733V35.9573C124.733 36.3074 124.806 36.5721 124.942 36.7344C125.078 36.8966 125.388 36.9905 125.861 37.0076V37.2808H123.232V37.0076H123.214Z" fill="white"/>
<path d="M135.991 32.3968V35.9917C135.991 36.2052 136.018 36.3589 136.073 36.4614C136.173 36.6407 136.355 36.7261 136.637 36.7261C136.819 36.7261 136.992 36.6748 137.164 36.5638C137.264 36.5041 137.392 36.4101 137.537 36.265V33.2593C137.537 33.0373 137.492 32.8836 137.401 32.7896C137.31 32.7042 137.119 32.653 136.837 32.6445V32.3883H139.083V36.2137C139.083 36.4358 139.129 36.5809 139.211 36.6663C139.302 36.7517 139.474 36.8029 139.729 36.82V37.0676C139.029 37.1274 138.592 37.1786 138.41 37.2043C138.228 37.2299 137.937 37.3067 137.537 37.4263V36.7261C137.273 36.9396 137.046 37.0933 136.873 37.1872C136.564 37.3494 136.246 37.4263 135.909 37.4263C135.545 37.4263 135.209 37.3153 134.891 37.1018C134.581 36.8883 134.418 36.4955 134.418 35.9405V33.2593C134.418 33.0373 134.381 32.8836 134.3 32.8153C134.218 32.7469 134.072 32.6872 133.854 32.6445V32.3883H135.991V32.3968Z" fill="white"/>
<path d="M144.075 32.5845C144.421 32.798 144.594 33.0797 144.594 33.4213C144.594 33.6006 144.521 33.7629 144.384 33.8995C144.248 34.0361 144.075 34.1044 143.857 34.1044C143.711 34.1044 143.593 34.0703 143.484 34.0105C143.284 33.8995 143.184 33.7031 143.184 33.4128C143.184 33.3786 143.184 33.3359 143.193 33.2761C143.202 33.2164 143.202 33.1481 143.202 33.0797C143.202 32.8919 143.157 32.7638 143.066 32.6955C142.975 32.6272 142.866 32.593 142.738 32.593C142.393 32.593 142.138 32.7723 141.993 33.131C141.847 33.4896 141.774 33.908 141.774 34.3691C141.774 35.0352 141.911 35.5902 142.193 36.0342C142.475 36.4868 142.847 36.7088 143.32 36.7088C143.62 36.7088 143.866 36.649 144.075 36.5209C144.203 36.4526 144.357 36.316 144.539 36.1196L144.748 36.2989C144.384 36.7771 143.957 37.1101 143.466 37.2894C143.202 37.3834 142.929 37.4261 142.638 37.4261C141.92 37.4261 141.329 37.1784 140.865 36.7002C140.41 36.2135 140.183 35.6158 140.183 34.9156C140.183 34.1727 140.428 33.5494 140.91 33.0285C141.392 32.5076 142.047 32.2515 142.857 32.2515C143.32 32.26 143.73 32.371 144.075 32.5845Z" fill="white"/>
<path d="M145.122 37.0248C145.331 36.9992 145.477 36.9479 145.577 36.8625C145.677 36.7772 145.722 36.6235 145.722 36.3758V30.9707C145.722 30.7572 145.686 30.6121 145.604 30.5267C145.522 30.4413 145.367 30.3815 145.131 30.3559V30.0997H147.305V33.0798C147.532 32.8151 147.777 32.6102 148.032 32.4735C148.287 32.3284 148.578 32.2601 148.896 32.2601C149.333 32.2601 149.687 32.3796 149.969 32.6187C150.251 32.8578 150.388 33.2591 150.388 33.8312V36.3758C150.388 36.6149 150.433 36.7686 150.515 36.8455C150.606 36.9223 150.742 36.9736 150.952 37.0163V37.2724H148.305V37.0163C148.505 36.9821 148.641 36.9223 148.714 36.8625C148.787 36.7942 148.823 36.6491 148.823 36.4185V33.8483C148.823 33.6092 148.796 33.4299 148.742 33.3018C148.651 33.0798 148.478 32.9773 148.223 32.9773C148.032 32.9773 147.832 33.0627 147.623 33.2335C147.414 33.4043 147.314 33.5153 147.314 33.5836V36.4185C147.314 36.6491 147.35 36.7942 147.423 36.8625C147.496 36.9309 147.632 36.9821 147.832 37.0163V37.2724H145.122V37.0248Z" fill="white"/>
<path d="M152.39 30.1936C152.581 30.0313 152.799 29.9459 153.054 29.9459C153.299 29.9459 153.526 30.0313 153.717 30.1936C153.908 30.3558 154.009 30.6205 154.009 30.9962C154.009 31.1158 153.981 31.2951 153.918 31.5256C153.854 31.7647 153.745 32.149 153.59 32.6869C153.49 33.0114 153.426 33.2846 153.399 33.4981C153.363 33.7116 153.308 34.1471 153.235 34.8046H152.908C152.799 33.9848 152.726 33.4725 152.69 33.2846C152.653 33.0882 152.581 32.8235 152.472 32.4734C152.335 32.0294 152.244 31.7306 152.199 31.5854C152.135 31.3548 152.108 31.1755 152.108 31.0389C152.099 30.6376 152.199 30.3558 152.39 30.1936ZM152.381 35.8976C152.562 35.7268 152.79 35.6328 153.054 35.6328C153.317 35.6328 153.545 35.7182 153.727 35.8976C153.908 36.0683 153.999 36.2818 153.999 36.5294C153.999 36.7771 153.908 36.9905 153.727 37.1613C153.545 37.3321 153.317 37.426 153.054 37.426C152.79 37.426 152.562 37.3406 152.381 37.1613C152.199 36.9905 152.099 36.7771 152.099 36.5294C152.099 36.2818 152.19 36.0683 152.381 35.8976Z" fill="white"/>
<path d="M156.137 30.1936C156.328 30.0313 156.546 29.9459 156.801 29.9459C157.046 29.9459 157.274 30.0313 157.465 30.1936C157.656 30.3558 157.756 30.6205 157.756 30.9962C157.756 31.1158 157.728 31.2951 157.665 31.5256C157.601 31.7647 157.492 32.149 157.337 32.6869C157.246 33.0114 157.174 33.2846 157.137 33.4981C157.101 33.7116 157.046 34.1471 156.964 34.8046H156.646C156.537 33.9848 156.464 33.4725 156.428 33.2846C156.391 33.0882 156.319 32.8235 156.209 32.4734C156.073 32.0294 155.982 31.7306 155.937 31.5854C155.873 31.3548 155.846 31.1755 155.846 31.0389C155.855 30.6376 155.946 30.3558 156.137 30.1936ZM156.128 35.8976C156.31 35.7268 156.537 35.6328 156.801 35.6328C157.064 35.6328 157.292 35.7182 157.474 35.8976C157.656 36.0683 157.746 36.2818 157.746 36.5294C157.746 36.7771 157.656 36.9905 157.474 37.1613C157.292 37.3321 157.064 37.426 156.801 37.426C156.537 37.426 156.31 37.3406 156.128 37.1613C155.946 36.9905 155.846 36.7771 155.846 36.5294C155.855 36.2818 155.946 36.0683 156.128 35.8976Z" fill="white"/>
<path d="M13.2812 157V145.547H14.7969V150.25H20.75V145.547H22.2656V157H20.75V151.602H14.7969V157H13.2812ZM30.6169 154.328L32.07 154.508C31.8408 155.357 31.4164 156.016 30.7966 156.484C30.1768 156.953 29.3851 157.188 28.4216 157.188C27.208 157.188 26.2445 156.815 25.5309 156.07C24.8226 155.32 24.4684 154.271 24.4684 152.922C24.4684 151.526 24.8278 150.443 25.5466 149.672C26.2653 148.901 27.1976 148.516 28.3434 148.516C29.4528 148.516 30.3591 148.893 31.0622 149.648C31.7653 150.404 32.1169 151.466 32.1169 152.836C32.1169 152.919 32.1143 153.044 32.1091 153.211H25.9216C25.9736 154.122 26.2315 154.82 26.695 155.305C27.1585 155.789 27.7367 156.031 28.4294 156.031C28.945 156.031 29.3851 155.896 29.7497 155.625C30.1143 155.354 30.4033 154.922 30.6169 154.328ZM25.9997 152.055H30.6325C30.57 151.357 30.3929 150.833 30.1012 150.484C29.6533 149.943 29.0726 149.672 28.3591 149.672C27.7132 149.672 27.169 149.888 26.7262 150.32C26.2887 150.753 26.0466 151.331 25.9997 152.055ZM39.5775 155.977C39.0567 156.419 38.5541 156.732 38.0697 156.914C37.5905 157.096 37.0749 157.188 36.5228 157.188C35.6114 157.188 34.9108 156.966 34.4212 156.523C33.9317 156.076 33.6869 155.505 33.6869 154.812C33.6869 154.406 33.778 154.036 33.9603 153.703C34.1478 153.365 34.39 153.094 34.6869 152.891C34.989 152.688 35.3275 152.534 35.7025 152.43C35.9785 152.357 36.3952 152.286 36.9525 152.219C38.0879 152.083 38.9239 151.922 39.4603 151.734C39.4655 151.542 39.4681 151.419 39.4681 151.367C39.4681 150.794 39.3353 150.391 39.0697 150.156C38.7103 149.839 38.1765 149.68 37.4681 149.68C36.8067 149.68 36.3171 149.797 35.9994 150.031C35.6869 150.26 35.4551 150.669 35.3041 151.258L33.9291 151.07C34.0541 150.482 34.2598 150.008 34.5462 149.648C34.8327 149.284 35.2468 149.005 35.7884 148.812C36.3301 148.615 36.9577 148.516 37.6712 148.516C38.3796 148.516 38.9551 148.599 39.3978 148.766C39.8405 148.932 40.166 149.143 40.3744 149.398C40.5827 149.648 40.7285 149.966 40.8119 150.352C40.8587 150.591 40.8822 151.023 40.8822 151.648V153.523C40.8822 154.831 40.9108 155.659 40.9681 156.008C41.0306 156.352 41.1504 156.682 41.3275 157H39.8587C39.7129 156.708 39.6192 156.367 39.5775 155.977ZM39.4603 152.836C38.9499 153.044 38.1843 153.221 37.1634 153.367C36.5853 153.451 36.1765 153.544 35.9369 153.648C35.6973 153.753 35.5124 153.906 35.3822 154.109C35.252 154.307 35.1869 154.529 35.1869 154.773C35.1869 155.148 35.3275 155.461 35.6087 155.711C35.8952 155.961 36.3119 156.086 36.8587 156.086C37.4004 156.086 37.8822 155.969 38.3041 155.734C38.7259 155.495 39.0358 155.169 39.2337 154.758C39.3848 154.44 39.4603 153.971 39.4603 153.352V152.836ZM43.3584 157V145.547H44.7647V157H43.3584ZM50.3425 155.742L50.5456 156.984C50.1498 157.068 49.7956 157.109 49.4831 157.109C48.9727 157.109 48.5769 157.029 48.2956 156.867C48.0144 156.706 47.8165 156.495 47.7019 156.234C47.5873 155.969 47.53 155.414 47.53 154.57V149.797H46.4987V148.703H47.53V146.648L48.9284 145.805V148.703H50.3425V149.797H48.9284V154.648C48.9284 155.049 48.9519 155.307 48.9987 155.422C49.0508 155.536 49.1316 155.628 49.2409 155.695C49.3555 155.763 49.517 155.797 49.7253 155.797C49.8816 155.797 50.0873 155.779 50.3425 155.742ZM52.0453 157V145.547H53.4516V149.656C54.1078 148.896 54.9359 148.516 55.9359 148.516C56.5505 148.516 57.0844 148.638 57.5375 148.883C57.9906 149.122 58.3135 149.456 58.5062 149.883C58.7042 150.31 58.8031 150.93 58.8031 151.742V157H57.3969V151.742C57.3969 151.039 57.2432 150.529 56.9359 150.211C56.6339 149.888 56.2042 149.727 55.6469 149.727C55.2302 149.727 54.837 149.836 54.4672 150.055C54.1026 150.268 53.8422 150.56 53.6859 150.93C53.5297 151.299 53.4516 151.81 53.4516 152.461V157H52.0453ZM72.5916 155.648C72.128 156.164 71.6228 156.552 71.0759 156.812C70.5291 157.068 69.9379 157.195 69.3025 157.195C68.1306 157.195 67.2009 156.799 66.5134 156.008C65.9561 155.362 65.6775 154.641 65.6775 153.844C65.6775 153.135 65.9041 152.497 66.3572 151.93C66.8155 151.357 67.4978 150.854 68.4041 150.422C67.8884 149.828 67.5447 149.346 67.3728 148.977C67.2009 148.607 67.115 148.25 67.115 147.906C67.115 147.219 67.3832 146.622 67.9197 146.117C68.4614 145.607 69.141 145.352 69.9588 145.352C70.74 145.352 71.378 145.591 71.8728 146.07C72.3728 146.549 72.6228 147.125 72.6228 147.797C72.6228 148.885 71.9015 149.815 70.4588 150.586L72.5134 153.203C72.7478 152.745 72.9301 152.214 73.0603 151.609L74.5213 151.922C74.2713 152.922 73.9327 153.745 73.5056 154.391C74.0317 155.089 74.628 155.674 75.2947 156.148L74.3494 157.266C73.7817 156.901 73.1957 156.362 72.5916 155.648ZM69.7322 149.68C70.3416 149.32 70.7348 149.005 70.9119 148.734C71.0942 148.464 71.1853 148.164 71.1853 147.836C71.1853 147.445 71.0603 147.128 70.8103 146.883C70.5655 146.633 70.2582 146.508 69.8884 146.508C69.5082 146.508 69.1905 146.63 68.9353 146.875C68.6853 147.12 68.5603 147.419 68.5603 147.773C68.5603 147.951 68.6046 148.138 68.6931 148.336C68.7869 148.529 68.9249 148.734 69.1072 148.953L69.7322 149.68ZM71.7088 154.539L69.1306 151.344C68.3702 151.797 67.8572 152.219 67.5916 152.609C67.3259 152.995 67.1931 153.378 67.1931 153.758C67.1931 154.221 67.378 154.703 67.7478 155.203C68.1176 155.703 68.641 155.953 69.3181 155.953C69.74 155.953 70.1749 155.823 70.6228 155.562C71.0759 155.297 71.4379 154.956 71.7088 154.539ZM83.9894 157L80.9503 145.547H82.505L84.2472 153.055C84.4347 153.841 84.5961 154.622 84.7316 155.398C85.0232 154.174 85.1951 153.469 85.2472 153.281L87.4269 145.547H89.255L90.8956 151.344C91.3071 152.781 91.604 154.133 91.7862 155.398C91.9321 154.674 92.1222 153.844 92.3566 152.906L94.1534 145.547H95.6769L92.5362 157H91.0753L88.6612 148.273C88.4581 147.544 88.3383 147.096 88.3019 146.93C88.1821 147.456 88.0701 147.904 87.9659 148.273L85.5362 157H83.9894ZM102.622 154.328L104.075 154.508C103.846 155.357 103.421 156.016 102.802 156.484C102.182 156.953 101.39 157.188 100.427 157.188C99.213 157.188 98.2495 156.815 97.5359 156.07C96.8276 155.32 96.4734 154.271 96.4734 152.922C96.4734 151.526 96.8328 150.443 97.5516 149.672C98.2703 148.901 99.2026 148.516 100.348 148.516C101.458 148.516 102.364 148.893 103.067 149.648C103.77 150.404 104.122 151.466 104.122 152.836C104.122 152.919 104.119 153.044 104.114 153.211H97.9266C97.9786 154.122 98.2365 154.82 98.7 155.305C99.1635 155.789 99.7417 156.031 100.434 156.031C100.95 156.031 101.39 155.896 101.755 155.625C102.119 155.354 102.408 154.922 102.622 154.328ZM98.0047 152.055H102.637C102.575 151.357 102.398 150.833 102.106 150.484C101.658 149.943 101.078 149.672 100.364 149.672C99.7182 149.672 99.174 149.888 98.7312 150.32C98.2937 150.753 98.0516 151.331 98.0047 152.055ZM106.137 157V145.547H107.543V157H106.137ZM110.02 157V145.547H111.426V157H110.02ZM115.23 157H113.926V145.547H115.332V149.633C115.926 148.888 116.683 148.516 117.605 148.516C118.116 148.516 118.598 148.62 119.051 148.828C119.509 149.031 119.884 149.32 120.176 149.695C120.473 150.065 120.704 150.513 120.871 151.039C121.038 151.565 121.121 152.128 121.121 152.727C121.121 154.148 120.769 155.247 120.066 156.023C119.363 156.799 118.519 157.188 117.535 157.188C116.556 157.188 115.788 156.779 115.23 155.961V157ZM115.215 152.789C115.215 153.784 115.35 154.503 115.621 154.945C116.064 155.669 116.663 156.031 117.418 156.031C118.032 156.031 118.564 155.766 119.012 155.234C119.459 154.698 119.683 153.901 119.683 152.844C119.683 151.76 119.467 150.961 119.035 150.445C118.608 149.93 118.09 149.672 117.48 149.672C116.866 149.672 116.334 149.94 115.887 150.477C115.439 151.008 115.215 151.779 115.215 152.789ZM128.839 154.328L130.293 154.508C130.063 155.357 129.639 156.016 129.019 156.484C128.399 156.953 127.608 157.188 126.644 157.188C125.431 157.188 124.467 156.815 123.753 156.07C123.045 155.32 122.691 154.271 122.691 152.922C122.691 151.526 123.05 150.443 123.769 149.672C124.488 148.901 125.42 148.516 126.566 148.516C127.675 148.516 128.582 148.893 129.285 149.648C129.988 150.404 130.339 151.466 130.339 152.836C130.339 152.919 130.337 153.044 130.332 153.211H124.144C124.196 154.122 124.454 154.82 124.918 155.305C125.381 155.789 125.959 156.031 126.652 156.031C127.168 156.031 127.608 155.896 127.972 155.625C128.337 155.354 128.626 154.922 128.839 154.328ZM124.222 152.055H128.855C128.793 151.357 128.615 150.833 128.324 150.484C127.876 149.943 127.295 149.672 126.582 149.672C125.936 149.672 125.391 149.888 124.949 150.32C124.511 150.753 124.269 151.331 124.222 152.055ZM132.394 147.164V145.547H133.8V147.164H132.394ZM132.394 157V148.703H133.8V157H132.394ZM136.268 157V148.703H137.534V149.883C138.143 148.971 139.024 148.516 140.175 148.516C140.675 148.516 141.133 148.607 141.55 148.789C141.972 148.966 142.287 149.201 142.495 149.492C142.703 149.784 142.849 150.13 142.933 150.531C142.985 150.792 143.011 151.247 143.011 151.898V157H141.604V151.953C141.604 151.38 141.55 150.953 141.44 150.672C141.331 150.385 141.136 150.159 140.854 149.992C140.578 149.82 140.253 149.734 139.878 149.734C139.279 149.734 138.761 149.924 138.323 150.305C137.891 150.685 137.675 151.406 137.675 152.469V157H136.268ZM145.237 157.688L146.604 157.891C146.661 158.312 146.82 158.62 147.081 158.812C147.43 159.073 147.906 159.203 148.51 159.203C149.161 159.203 149.664 159.073 150.018 158.812C150.372 158.552 150.612 158.188 150.737 157.719C150.81 157.432 150.844 156.831 150.838 155.914C150.224 156.638 149.458 157 148.542 157C147.401 157 146.518 156.589 145.893 155.766C145.268 154.943 144.956 153.956 144.956 152.805C144.956 152.013 145.099 151.284 145.385 150.617C145.672 149.945 146.086 149.427 146.628 149.062C147.174 148.698 147.815 148.516 148.549 148.516C149.529 148.516 150.336 148.911 150.971 149.703V148.703H152.268V155.875C152.268 157.167 152.135 158.081 151.87 158.617C151.609 159.159 151.193 159.586 150.62 159.898C150.052 160.211 149.351 160.367 148.518 160.367C147.529 160.367 146.729 160.143 146.12 159.695C145.51 159.253 145.216 158.583 145.237 157.688ZM146.401 152.703C146.401 153.792 146.617 154.586 147.049 155.086C147.482 155.586 148.023 155.836 148.674 155.836C149.32 155.836 149.862 155.589 150.299 155.094C150.737 154.594 150.956 153.812 150.956 152.75C150.956 151.734 150.729 150.969 150.276 150.453C149.828 149.938 149.286 149.68 148.651 149.68C148.026 149.68 147.495 149.935 147.057 150.445C146.62 150.951 146.401 151.703 146.401 152.703ZM157.525 157L161.924 145.547H163.557L168.244 157H166.518L165.182 153.531H160.393L159.135 157H157.525ZM160.83 152.297H164.713L163.518 149.125C163.153 148.161 162.882 147.37 162.705 146.75C162.559 147.484 162.353 148.214 162.088 148.938L160.83 152.297ZM169.595 160.18V148.703H170.877V149.781C171.179 149.359 171.52 149.044 171.9 148.836C172.28 148.622 172.741 148.516 173.283 148.516C173.991 148.516 174.616 148.698 175.158 149.062C175.699 149.427 176.108 149.943 176.384 150.609C176.66 151.271 176.798 151.997 176.798 152.789C176.798 153.638 176.645 154.404 176.337 155.086C176.035 155.763 175.593 156.284 175.009 156.648C174.431 157.008 173.822 157.188 173.181 157.188C172.712 157.188 172.291 157.089 171.916 156.891C171.546 156.693 171.241 156.443 171.002 156.141V160.18H169.595ZM170.869 152.898C170.869 153.966 171.085 154.755 171.517 155.266C171.949 155.776 172.473 156.031 173.087 156.031C173.712 156.031 174.246 155.768 174.689 155.242C175.137 154.711 175.361 153.891 175.361 152.781C175.361 151.724 175.142 150.932 174.705 150.406C174.272 149.88 173.754 149.617 173.15 149.617C172.551 149.617 172.02 149.898 171.556 150.461C171.098 151.018 170.869 151.831 170.869 152.898ZM178.822 160.18V148.703H180.103V149.781C180.405 149.359 180.746 149.044 181.126 148.836C181.506 148.622 181.967 148.516 182.509 148.516C183.217 148.516 183.842 148.698 184.384 149.062C184.926 149.427 185.335 149.943 185.611 150.609C185.887 151.271 186.025 151.997 186.025 152.789C186.025 153.638 185.871 154.404 185.564 155.086C185.262 155.763 184.819 156.284 184.236 156.648C183.658 157.008 183.048 157.188 182.408 157.188C181.939 157.188 181.517 157.089 181.142 156.891C180.772 156.693 180.467 156.443 180.228 156.141V160.18H178.822ZM180.095 152.898C180.095 153.966 180.311 154.755 180.743 155.266C181.176 155.776 181.699 156.031 182.314 156.031C182.939 156.031 183.473 155.768 183.915 155.242C184.363 154.711 184.587 153.891 184.587 152.781C184.587 151.724 184.368 150.932 183.931 150.406C183.499 149.88 182.98 149.617 182.376 149.617C181.777 149.617 181.246 149.898 180.783 150.461C180.324 151.018 180.095 151.831 180.095 152.898Z" fill="#333333"/>
</g>
<defs>
<clipPath id="clip0_39_970">
<rect width="200" height="163" fill="white"/>
</clipPath>
</defs>
</svg>
