<svg width="31" height="31" viewBox="0 0 31 31" fill="none" xmlns="http://www.w3.org/2000/svg">
<circle cx="15.8" cy="15.5" r="15" fill="#1D76CC"/>
<g clip-path="url(#clip0_289_21815)">
<path d="M20.5841 17.2685C20.5841 19.9499 18.8961 21.6378 16.2148 21.6378C13.5334 21.6378 11.8455 19.9499 11.8455 17.2685C11.8455 14.3912 14.9777 10.5067 15.9383 9.38315C15.9725 9.34323 16.0149 9.31118 16.0627 9.28921C16.1104 9.26724 16.1624 9.25586 16.2149 9.25586C16.2675 9.25586 16.3194 9.26724 16.3671 9.28921C16.4149 9.31118 16.4573 9.34323 16.4915 9.38315C17.4518 10.5067 20.5841 14.3912 20.5841 17.2685Z" stroke="white" stroke-width="1.5" stroke-miterlimit="10"/>
<path d="M18.885 17.5107C18.885 18.0901 18.6548 18.6458 18.2451 19.0555C17.8354 19.4652 17.2797 19.6954 16.7003 19.6954" stroke="white" stroke-width="1.5" stroke-linecap="round" stroke-linejoin="round"/>
</g>
<defs>
<clipPath id="clip0_289_21815">
<rect width="15.5357" height="15.5357" fill="white" transform="translate(8.30005 7.46387)"/>
</clipPath>
</defs>
</svg>
