<svg width="51" height="51" viewBox="0 0 51 51" fill="none" xmlns="http://www.w3.org/2000/svg">
<circle cx="25.5" cy="25.5" r="25.5" fill="#1D76CC"/>
<path d="M25.3924 38.41L23.3055 36.539C20.8828 34.3561 18.8798 32.4731 17.2967 30.89C15.7135 29.3068 14.4542 27.8856 13.5187 26.6262C12.5832 25.3669 11.9295 24.2095 11.5577 23.1541C11.1859 22.0986 11 21.0192 11 19.9158C11 17.661 11.7556 15.778 13.2668 14.2668C14.778 12.7556 16.661 12 18.9158 12C20.1631 12 21.3505 12.2639 22.4779 12.7916C23.6053 13.3193 24.5768 14.0629 25.3924 15.0224C26.2079 14.0629 27.1794 13.3193 28.3068 12.7916C29.4342 12.2639 30.6216 12 31.8689 12C34.1237 12 36.0067 12.7556 37.5179 14.2668C39.0291 15.778 39.7847 17.661 39.7847 19.9158C39.7847 21.0192 39.5988 22.0986 39.227 23.1541C38.8552 24.2095 38.2016 25.3669 37.2661 26.6262C36.3306 27.8856 35.0712 29.3068 33.4881 30.89C31.9049 32.4731 29.902 34.3561 27.4793 36.539L25.3924 38.41ZM25.3924 34.5241C27.6951 32.4612 29.5901 30.6921 31.0774 29.2169C32.5646 27.7417 33.7399 26.4583 34.6035 25.3669C35.467 24.2755 36.0667 23.304 36.4025 22.4525C36.7384 21.6009 36.9063 20.7554 36.9063 19.9158C36.9063 18.4766 36.4265 17.2772 35.467 16.3177C34.5075 15.3582 33.3082 14.8785 31.8689 14.8785C30.7415 14.8785 29.6981 15.1963 28.7386 15.832C27.7791 16.4676 27.1195 17.2772 26.7596 18.2607H24.0251C23.6653 17.2772 23.0056 16.4676 22.0461 15.832C21.0867 15.1963 20.0432 14.8785 18.9158 14.8785C17.4766 14.8785 16.2772 15.3582 15.3177 16.3177C14.3582 17.2772 13.8785 18.4766 13.8785 19.9158C13.8785 20.7554 14.0464 21.6009 14.3822 22.4525C14.718 23.304 15.3177 24.2755 16.1813 25.3669C17.0448 26.4583 18.2202 27.7417 19.7074 29.2169C21.1946 30.6921 23.0896 32.4612 25.3924 34.5241Z" fill="white"/>
<ellipse cx="32.5886" cy="31.4297" rx="5.75695" ry="6.47657" fill="#1D76CC"/>
<path d="M32.1914 36V27.8317L29.4686 30.5544" stroke="white" stroke-width="2" stroke-linecap="round" stroke-linejoin="round"/>
<path d="M32.1917 27.8317L34.9145 30.5544" stroke="white" stroke-width="2" stroke-linecap="round" stroke-linejoin="round"/>
</svg>
